<?xml version="1.0" encoding="utf-8"?>
<!-- Generator: Adobe Illustrator 16.0.0, SVG Export Plug-In . SVG Version: 6.00 Build 0)  -->
<!DOCTYPE svg PUBLIC "-//W3C//DTD SVG 1.1//EN" "http://www.w3.org/Graphics/SVG/1.1/DTD/svg11.dtd">
<svg version="1.1" id="Слой_1" xmlns="http://www.w3.org/2000/svg" xmlns:xlink="http://www.w3.org/1999/xlink" x="0px" y="0px"
	 width="44px" height="62px" viewBox="-3 -5 44 62" enable-background="new -3 -5 44 62" xml:space="preserve">
<g>
	<g>
		<defs>
			<rect id="SVGID_1_" x="-3" y="-5" width="44" height="62"/>
		</defs>
		<clipPath id="SVGID_2_">
			<use xlink:href="#SVGID_1_"  overflow="visible"/>
		</clipPath>
		<path clip-path="url(#SVGID_2_)" fill="#5FC7AE" d="M19-5C6.866-5-3,4.966-3,17.214c0,2.233,0.332,4.388,0.941,6.419
			c2.523,12.103,17.896,30.404,20.013,32.887C18.217,56.827,18.602,57,19,57c0.049,0,0.096,0,0.145-0.007
			c0.372-0.04,0.708-0.227,0.935-0.517l0.083-0.104c4.704-5.628,17.608-21.826,19.901-32.761C40.677,21.588,41,19.439,41,17.214
			C41,4.966,31.126-5,19-5 M19,26.169c-4.928,0-8.938-4.016-8.938-8.956c0-1.666,0.461-3.236,1.264-4.58
			c0.799-1.351,1.947-2.473,3.322-3.237C15.934,8.673,17.425,8.261,19,8.261c1.589,0,3.087,0.419,4.381,1.156
			c1.365,0.764,2.508,1.887,3.304,3.237c0.799,1.336,1.255,2.9,1.255,4.559C27.939,22.154,23.929,26.169,19,26.169"/>
	</g>
</g>
</svg>
