<?xml version="1.0" encoding="utf-8"?>
<!-- Generator: Adobe Illustrator 16.0.0, SVG Export Plug-In . SVG Version: 6.00 Build 0)  -->
<!DOCTYPE svg PUBLIC "-//W3C//DTD SVG 1.1//EN" "http://www.w3.org/Graphics/SVG/1.1/DTD/svg11.dtd">
<svg version="1.1" id="Слой_1" xmlns="http://www.w3.org/2000/svg" xmlns:xlink="http://www.w3.org/1999/xlink" x="0px" y="0px"
	 width="400px" height="400px" viewBox="0 0 400 400" enable-background="new 0 0 400 400" xml:space="preserve">
<path fill="#FFFFFF" d="M0,20.999v0.002l0.008-0.008L0,20.999z M1.303,21.001L18,41.371L17.212,42L0.002,21.002L0,21.001
	l0.008-0.008L17.212,0L18,0.628L1.303,21.001z"/>
<path fill="#FFFFFF" d="M38,21.001v-0.002l-0.008,0.008L38,21.001z M36.697,20.999L20,0.629L20.788,0l17.209,20.998L38,20.999
	l-0.008,0.008L20.788,42L20,41.372L36.697,20.999z"/>
<g>
	<g>
		<g>
			<g>
				<g>
					<g>
						<defs>
							<rect id="SVGID_1_" x="80" width="26" height="26"/>
						</defs>
						<clipPath id="SVGID_2_">
							<use xlink:href="#SVGID_1_"  overflow="visible"/>
						</clipPath>
						<path clip-path="url(#SVGID_2_)" fill="#FFFFFF" d="M83.337,0h19.325C104.499,0,106,1.359,106,3.337v19.326
							c0,1.979-1.502,3.337-3.338,3.337H83.337C81.501,26,80,24.642,80,22.663V3.337C80,1.359,81.501,0,83.337,0 M98.94,2.889
							c-0.644,0-1.17,0.527-1.17,1.171v2.802c0,0.644,0.526,1.17,1.17,1.17h2.938c0.645,0,1.171-0.526,1.171-1.17V4.06
							c0-0.644-0.526-1.171-1.171-1.171H98.94z M103.062,10.996h-2.289c0.217,0.707,0.334,1.456,0.334,2.23
							c0,4.325-3.619,7.831-8.082,7.831s-8.082-3.506-8.082-7.831c0-0.775,0.117-1.524,0.334-2.23h-2.388v10.983
							c0,0.568,0.465,1.033,1.034,1.033h18.106c0.568,0,1.033-0.465,1.033-1.033V10.996L103.062,10.996z M93.024,7.884
							c-2.883,0-5.222,2.265-5.222,5.06c0,2.795,2.338,5.06,5.222,5.06c2.884,0,5.222-2.266,5.222-5.06S95.909,7.884,93.024,7.884"
							/>
					</g>
				</g>
			</g>
		</g>
	</g>
</g>
<path fill="#7F7F7F" d="M58.956,1.363c-0.109-0.492-0.425-0.906-0.848-1.144C57.86,0.079,57.575,0,57.272,0H41.728
	c-0.302,0-0.587,0.079-0.836,0.219c-0.423,0.238-0.738,0.651-0.848,1.144C40.015,1.488,40,1.617,40,1.75v10.499
	C40,13.215,40.775,14,41.728,14h15.545C58.225,14,59,13.215,59,12.249V1.75C59,1.617,58.985,1.488,58.956,1.363z M55.853,1.75
	L49.5,6.63l-6.352-4.88H55.853z M57.272,12.249H41.728V2.857l7.25,5.567c0.156,0.12,0.339,0.179,0.522,0.179
	s0.367-0.059,0.522-0.179l7.25-5.567V12.249z"/>
<path fill="#5FC7AE" d="M78.956,1.363c-0.109-0.492-0.425-0.906-0.848-1.144C77.86,0.079,77.575,0,77.272,0H61.728
	c-0.302,0-0.587,0.079-0.836,0.219c-0.423,0.238-0.738,0.651-0.848,1.144C60.015,1.488,60,1.617,60,1.75v10.499
	C60,13.215,60.775,14,61.728,14h15.545C78.225,14,79,13.215,79,12.249V1.75C79,1.617,78.985,1.488,78.956,1.363z M75.853,1.75
	L69.5,6.63l-6.352-4.88H75.853z M77.272,12.249H61.728V2.857l7.25,5.567c0.156,0.12,0.339,0.179,0.522,0.179
	s0.367-0.059,0.522-0.179l7.25-5.567V12.249z"/>
<g>
	<g>
		<g>
			<g>
				<g>
					<defs>
						<rect id="SVGID_3_" x="110.015" width="27" height="27"/>
					</defs>
					<clipPath id="SVGID_4_">
						<use xlink:href="#SVGID_3_"  overflow="visible"/>
					</clipPath>
					<path clip-path="url(#SVGID_4_)" fill="#231F20" d="M110.036,5.67c0.022,0.206,0.062,0.417,0.119,0.623
						C110.111,6.087,110.074,5.879,110.036,5.67"/>
				</g>
			</g>
		</g>
	</g>
	<g>
		<g>
			<g>
				<g>
					<defs>
						<rect id="SVGID_5_" x="110.015" width="27" height="27"/>
					</defs>
					<clipPath id="SVGID_6_">
						<use xlink:href="#SVGID_5_"  overflow="visible"/>
					</clipPath>
					<path clip-path="url(#SVGID_6_)" fill="#7F7F7F" d="M135.802,18.865c-0.25-0.246-1.11-1.066-1.579-1.29
						c-0.981-0.472-2.029-0.739-2.947-0.752c-1.002-0.012-1.934,0.359-2.625,1.051l-0.762,0.761
						c-0.081,0.081-0.155,0.165-0.228,0.255c-2.059-0.987-3.932-2.316-5.572-3.958c-1.641-1.641-2.973-3.517-3.96-5.578
						c0.085-0.072,0.171-0.149,0.25-0.228l0.761-0.761c0.691-0.691,1.064-1.621,1.051-2.625c-0.013-0.917-0.279-1.963-0.752-2.946
						c-0.224-0.469-1.044-1.329-1.296-1.586c-1.544-1.543-3.986-1.616-5.442-0.16l-1.639,1.638
						c-0.048,0.048-0.097,0.101-0.143,0.152c-0.698,0.785-0.99,1.813-0.882,2.833c0.038,0.208,0.075,0.417,0.119,0.623
						c0,0.004,0.002,0.011,0.004,0.018c1.011,4.942,3.398,9.606,7.171,13.378c3.775,3.775,8.444,6.161,13.393,7.171
						c0.013,0.005,0.028,0.007,0.044,0.013c0.175,0.035,0.351,0.071,0.528,0.099c1.031,0.123,2.079-0.166,2.876-0.875
						c0.055-0.046,0.107-0.094,0.157-0.145l1.64-1.639C137.425,22.856,137.353,20.415,135.802,18.865 M133.452,25.074
						c-0.53,0.531-1.266,0.753-1.996,0.667c-0.123-0.013-0.246-0.035-0.366-0.067c-1.07-0.216-2.129-0.496-3.166-0.845
						c-3.573-1.2-6.903-3.205-9.716-6.017c-2.813-2.813-4.817-6.143-6.018-9.716c-0.34-1.011-0.616-2.038-0.827-3.082
						c-0.002-0.007-0.004-0.013-0.004-0.018c-0.05-0.165-0.079-0.333-0.094-0.498V5.49c-0.062-0.706,0.158-1.412,0.674-1.928
						l1.639-1.639c0.974-0.974,2.628-0.899,3.683,0.156c0.439,0.448,0.97,1.058,1.06,1.248c0.395,0.825,0.621,1.688,0.629,2.428
						c0.011,0.665-0.234,1.279-0.687,1.731l-0.761,0.761c-0.14,0.14-0.296,0.261-0.467,0.362c-0.013,0.009-0.028,0.015-0.042,0.024
						c-0.241,0.167-0.335,0.489-0.213,0.766c0.086,0.191,0.173,0.38,0.266,0.564c1.044,2.158,2.444,4.124,4.166,5.846
						c1.72,1.72,3.682,3.118,5.838,4.16c0.187,0.095,0.373,0.18,0.563,0.266c0.299,0.131,0.637,0.018,0.792-0.257
						c0.099-0.169,0.222-0.327,0.362-0.467l0.761-0.761c0.452-0.452,1.068-0.695,1.733-0.685c0.739,0.007,1.602,0.232,2.427,0.628
						c0.192,0.092,0.801,0.619,1.243,1.054c1.062,1.062,1.135,2.714,0.16,3.688L133.452,25.074z"/>
				</g>
			</g>
		</g>
	</g>
</g>
<g>
	<g>
		<g>
			<g>
				<g>
					<defs>
						<rect id="SVGID_7_" x="140" width="29" height="21"/>
					</defs>
					<clipPath id="SVGID_8_">
						<use xlink:href="#SVGID_7_"  overflow="visible"/>
					</clipPath>
					<path clip-path="url(#SVGID_8_)" fill="#7F7F7F" d="M168.894,1.431c-0.142-0.43-0.422-0.798-0.781-1.053
						C167.778,0.14,167.37,0,166.929,0h-24.857c-0.442,0-0.849,0.14-1.184,0.378c-0.359,0.255-0.639,0.623-0.78,1.053
						C140.038,1.642,140,1.865,140,2.1v16.8c0,1.158,0.929,2.1,2.071,2.1h24.857c1.143,0,2.071-0.941,2.071-2.1V2.1
						C169,1.865,168.962,1.642,168.894,1.431 M167.619,18.9c0,0.384-0.311,0.7-0.69,0.7h-24.857c-0.38,0-0.69-0.316-0.69-0.7V2.1
						c0-0.385,0.311-0.7,0.69-0.7h24.857c0.38,0,0.69,0.314,0.69,0.7V18.9z"/>
				</g>
			</g>
		</g>
	</g>
</g>
<g>
	<g>
		<g>
			<g>
				<g>
					<defs>
						<rect id="SVGID_9_" x="140" width="29" height="21"/>
					</defs>
					<clipPath id="SVGID_10_">
						<use xlink:href="#SVGID_9_"  overflow="visible"/>
					</clipPath>
					<path clip-path="url(#SVGID_10_)" fill="#7F7F7F" d="M168.894,1.431c-0.046,0.067-0.101,0.126-0.166,0.175l-1.108,0.851
						l-12.701,9.769c-0.125,0.094-0.27,0.14-0.418,0.14s-0.293-0.046-0.418-0.14l-12.701-9.769l-1.108-0.851
						c-0.066-0.049-0.121-0.108-0.166-0.175c0.142-0.43,0.421-0.798,0.78-1.053c0.076,0.025,0.152,0.063,0.221,0.116l1.181,0.907
						l12.211,9.387l12.21-9.388l1.181-0.907c0.069-0.053,0.146-0.091,0.221-0.116C168.472,0.633,168.752,1.001,168.894,1.431"/>
				</g>
			</g>
		</g>
	</g>
</g>
<path fill="#7F7F7F" d="M181,15.583c-2.463,0-4.468-2.008-4.468-4.477c0-2.468,2.004-4.477,4.468-4.477
	c2.465,0,4.469,2.008,4.469,4.477C185.469,13.575,183.465,15.583,181,15.583z M181,8.007c-1.706,0-3.093,1.391-3.093,3.1
	s1.387,3.1,3.093,3.1c1.708,0,3.093-1.39,3.093-3.1S182.707,8.007,181,8.007z M181,0c-6.067,0-11,4.984-11,11.106
	c0,1.116,0.166,2.195,0.471,3.211c1.261,6.052,8.947,15.202,10.006,16.442c0.13,0.156,0.324,0.24,0.522,0.24
	c0.024,0,0.048,0,0.072-0.003c0.186-0.021,0.354-0.114,0.467-0.259l0.042-0.05c2.351-2.813,8.803-10.915,9.949-16.382
	c0.307-1.013,0.47-2.086,0.47-3.2C192,4.984,187.063,0,181,0z M180.996,29.239c-2.176-2.609-4.689-6.03-6.562-9.23
	c-1.344-2.302-2.361-4.492-2.678-6.191c-0.247-0.861-0.381-1.771-0.381-2.711c0-0.409,0.024-0.812,0.075-1.208
	c0.591-4.798,4.647-8.52,9.549-8.52c4.906,0,8.967,3.729,9.552,8.534c0.048,0.388,0.072,0.789,0.072,1.194
	c0,0.893-0.12,1.757-0.346,2.577c-0.269,1.667-1.256,3.87-2.685,6.306C185.872,22.916,183.513,26.184,180.996,29.239z"/>
<path id="bag_2_" fill="#7F7F7F" d="M219.395,26h-0.004h-18.783c-0.167,0-0.319-0.071-0.438-0.197
	c-0.114-0.122-0.176-0.29-0.17-0.463l0.605-17.137c0.013-0.342,0.276-0.613,0.604-0.613h17.573c0.323,0,0.594,0.271,0.604,0.613
	l0.602,17.047c0.007,0.039,0.01,0.075,0.01,0.113C220,25.714,219.73,26,219.395,26z M201.234,24.728h17.524l-0.56-15.868h-16.403
	L201.234,24.728z M205.148,11.399c-0.334,0-0.604,0.283-0.604,0.635c0,0.351,0.271,0.633,0.604,0.633
	c0.336,0,0.604-0.284,0.604-0.633C205.755,11.682,205.484,11.399,205.148,11.399z M214.846,11.399c-0.334,0-0.607,0.283-0.607,0.635
	c0,0.351,0.273,0.633,0.607,0.633s0.604-0.284,0.604-0.633C215.452,11.682,215.18,11.399,214.846,11.399z M215.452,5.713
	c0-3.15-2.447-5.713-5.455-5.713c-3.006,0-5.453,2.563-5.453,5.713c0,0.351,0.271,0.635,0.606,0.635
	c0.334,0,0.604-0.286,0.604-0.635c0-2.45,1.903-4.442,4.242-4.442c2.34,0,4.238,1.993,4.238,4.442c0,0.351,0.271,0.635,0.605,0.635
	S215.452,6.063,215.452,5.713z"/>
<path id="bag_3_" fill="#7F7F7F" d="M305.123,80h-0.016H246.88c-0.515,0-0.999-0.22-1.354-0.607
	c-0.354-0.375-0.545-0.892-0.522-1.424l1.88-52.73c0.036-1.053,0.866-1.885,1.874-1.885h54.479c1.008,0,1.84,0.832,1.877,1.885
	l1.862,52.453c0.021,0.121,0.026,0.232,0.026,0.349C307,79.12,306.167,80,305.123,80z M248.83,76.084h54.331l-1.743-48.823h-50.85
	L248.83,76.084z M260.964,35.074c-1.034,0-1.877,0.871-1.877,1.955c0,1.08,0.843,1.949,1.877,1.949c1.038,0,1.877-0.875,1.877-1.949
	C262.841,35.945,262.002,35.074,260.964,35.074z M291.02,35.074c-1.035,0-1.883,0.871-1.883,1.955c0,1.08,0.848,1.949,1.883,1.949
	s1.873-0.875,1.873-1.949C292.9,35.945,292.055,35.074,291.02,35.074z M292.9,17.578C292.9,7.886,285.314,0,275.991,0
	c-9.317,0-16.904,7.886-16.904,17.578c0,1.079,0.843,1.955,1.884,1.955c1.031,0,1.87-0.879,1.87-1.955
	c0-7.539,5.9-13.669,13.15-13.669c7.254,0,13.145,6.133,13.145,13.669c0,1.079,0.849,1.955,1.884,1.955S292.9,18.654,292.9,17.578z"
	/>
<path fill="#7F7F7F" d="M231.053,5L235,8.946L233.945,10L230,6.053L226.053,10L225,8.946L228.947,5L225,1.053L226.053,0L230,3.947
	L233.945,0L235,1.053L231.053,5z"/>
<path fill="#7F7F7F" d="M239.842,4L243,7.157L242.157,8L239,4.842L235.842,8L235,7.157L238.158,4L235,0.843L235.842,0L239,3.157
	L242.157,0L243,0.843L239.842,4z"/>
<path fill="#7F7F7F" d="M332,0.706l-5.195,4.588L326.006,6h-0.012L320,0.706L320.811,0l5.195,4.588L331.2,0L332,0.706z"/>
<path fill="#F4F4F4" d="M332,10.706l-5.195,4.588L326.006,16h-0.012L320,10.706L320.811,10l5.195,4.588L331.2,10L332,10.706z"/>
<path fill="#C9C9C9" d="M394,0.941l-6.063,6.117L387.007,8h-0.014L380,0.941L380.945,0l6.062,6.117L393.066,0L394,0.941z"/>
<g>
	<g>
		<g>
			<g>
				<defs>
					<rect id="SVGID_11_" x="340" width="36" height="26"/>
				</defs>
				<clipPath id="SVGID_12_">
					<use xlink:href="#SVGID_11_"  overflow="visible"/>
				</clipPath>
				<path clip-path="url(#SVGID_12_)" fill="#FFFFFF" d="M375.916,2.531c-0.208-0.914-0.806-1.681-1.605-2.125
					C373.838,0.146,373.299,0,372.727,0h-29.45c-0.573,0-1.111,0.146-1.584,0.406c-0.803,0.443-1.397,1.21-1.605,2.125
					C340.029,2.762,340,3.002,340,3.25v19.5c0,1.792,1.469,3.25,3.273,3.25h29.45c1.808,0,3.273-1.458,3.273-3.25V3.25
					C376,3.002,375.97,2.762,375.916,2.531 M370.034,3.25L358,12.313L345.966,3.25H370.034z M372.727,22.75h-29.45V5.306
					l13.733,10.342c0.295,0.22,0.646,0.33,0.99,0.33s0.695-0.11,0.99-0.33l13.733-10.342L372.727,22.75L372.727,22.75z"/>
			</g>
		</g>
	</g>
</g>
<path fill="#7F7F7F" d="M5.294,61l-4.588-4.762L0,55.505v-0.011L5.294,50L6,50.743l-4.588,4.762L6,60.267L5.294,61z"/>
<path fill="#7F7F7F" d="M37.977,55L38,55.024L33.054,60l-0.866-0.858l3.497-3.528H10v-1.226h25.685l-3.497-3.529L33.054,50
	L38,54.976L37.977,55z"/>
<path fill="#5FC7AE" d="M67.977,55L68,55.024L63.054,60l-0.866-0.858l3.497-3.528H40v-1.226h25.685l-3.497-3.529L63.054,50
	L68,54.976L67.977,55z"/>
<path fill="#E5E5E5" d="M79,50.706l-3.896,4.588L74.504,56h-0.009L70,50.706L70.608,50l3.896,4.588L78.4,50L79,50.706z"/>
<path d="M92,54.071l-5.089,5.857L85.989,61h-0.01L82,56.421l0.931-1.072l3.048,3.508L91.068,53L92,54.071z"/>
<path fill="#7F7F7F" d="M105.294,61l-4.588-4.762L100,55.505v-0.011L105.294,50L106,50.743l-4.588,4.762L106,60.267L105.294,61z"/>
<path fill="#FFFFFF" d="M113.294,61l-4.588-4.762L108,55.505v-0.011L113.294,50L114,50.743l-4.588,4.762L114,60.267L113.294,61z"/>
<path fill="#7F7F7F" d="M122.706,50l4.588,4.762L128,55.495v0.011L122.706,61L122,60.257l4.588-4.762L122,50.733L122.706,50z"/>
<path fill="#8A8A8A" d="M140.471,50l3.059,3.03L144,53.497v0.007L140.471,57L140,56.527l3.058-3.03L140,50.466L140.471,50z"/>
<path fill="#FFFFFF" d="M150.471,50l3.059,3.03L154,53.497v0.007L150.471,57L150,56.527l3.058-3.03L150,50.466L150.471,50z"/>
<path fill="#FFFFFF" d="M115.706,50l4.588,4.762L121,55.495v0.011L115.706,61L115,60.257l4.588-4.762L115,50.733L115.706,50z"/>
</svg>
